<svg width="480" height="207" xmlns="http://www.w3.org/2000/svg" xmlns:xlink="http://www.w3.org/1999/xlink" xml:space="preserve" overflow="hidden"><g transform="translate(-97 -260)"><path d="M365.144 136.899 380.237 136.899 381.502 135.634 381.502 122.34 376.682 122.34 376.682 125.895Z" fill="#23C6C5" transform="matrix(1 0 0 1.04032 -4.38698 139.139)"/><path d="M316.144 136.899 316.144 122.34 312.426 122.34 312.426 129.745 305.271 136.899Z" fill="#23C6C5" transform="matrix(1 0 0 1.04032 -4.38698 139.139)"/><path d="M279.24 134.423 279.24 122.34 274.801 122.34 274.801 123.888C275.717 124.139 276.393 124.979 276.393 125.982 276.393 127.182 275.423 128.163 274.212 128.163 273.002 128.163 272.031 127.193 272.031 125.982 272.031 124.979 272.707 124.15 273.623 123.888L273.623 122.34 269.566 122.34 269.566 134.009 266.393 136.255C266.862 137.084 266.774 138.131 266.066 138.84 265.967 138.938 265.837 138.993 265.727 139.069L272.729 151.185 272.729 140.912 279.218 134.423Z" fill="#23C6C5" transform="matrix(1 0 0 1.04032 -4.38698 139.139)"/><path d="M265.597 135.437 268.432 133.529 268.432 122.34 256.087 122.34 263.601 135.35C264.233 135.056 264.975 135.088 265.597 135.437Z" fill="#23C6C5" transform="matrix(1 0 0 1.04032 -4.38698 139.139)"/><path d="M298.717 136.899 303.636 136.899 311.27 129.265 311.27 122.34 307.802 122.34 307.802 127.814Z" fill="#23C6C5" transform="matrix(1 0 0 1.04032 -4.38698 139.139)"/><path d="M351.893 136.899 358.273 136.899 358.273 133.584 369.517 122.34 364.304 122.34 359.505 127.138C359.974 127.967 359.887 129.025 359.178 129.723 358.327 130.574 356.953 130.574 356.103 129.723 355.252 128.872 355.252 127.498 356.103 126.647 356.812 125.939 357.859 125.862 358.687 126.32L362.668 122.34 352.373 122.34C352.58 122.667 352.722 123.049 352.722 123.474 352.722 124.674 351.751 125.655 350.541 125.655 349.33 125.655 348.36 124.684 348.36 123.474 348.36 123.049 348.501 122.678 348.709 122.34L340.202 122.34 340.202 125.219 351.882 136.899Z" fill="#23C6C5" transform="matrix(1 0 0 1.04032 -4.38698 139.139)"/><path d="M359.429 136.899 363.464 136.899 375.526 125.404 375.526 122.34 371.153 122.34 359.429 134.063Z" fill="#23C6C5" transform="matrix(1 0 0 1.04032 -4.38698 139.139)"/><path d="M392.222 132.144C392.222 133.485 391.132 134.565 389.801 134.565 389.332 134.565 388.907 134.423 388.536 134.205L385.832 136.91 390.303 136.91 398.722 122.351 390.379 122.351 390.379 129.799C391.437 130.061 392.222 131.01 392.222 132.144Z" fill="#23C6C5" transform="matrix(1 0 0 1.04032 -4.38698 139.139)"/><path d="M334.695 136.899 336.189 136.899 335.022 135.732 335.022 122.34 329.94 122.34 329.94 135.896 334.695 140.65Z" fill="#23C6C5" transform="matrix(1 0 0 1.04032 -4.38698 139.139)"/><path d="M281.312 136.899 297.07 136.899 306.635 127.335 306.635 122.34 290.876 122.34 294.235 125.699C295.064 125.23 296.111 125.317 296.82 126.026 297.67 126.877 297.67 128.251 296.82 129.101 295.969 129.952 294.595 129.952 293.744 129.101 293.035 128.392 292.959 127.345 293.417 126.517L289.24 122.34 280.385 122.34 280.385 134.903 273.896 141.392 273.896 153.192 279.229 162.418 279.229 141.85 280.385 141.85 280.385 164.425 287.768 177.206 287.768 148.088 281.301 136.899Z" fill="#23C6C5" transform="matrix(1 0 0 1.04032 -4.38698 139.139)"/><path d="M337.836 136.899 350.257 136.899 339.057 125.699 339.057 122.34 336.178 122.34 336.178 135.252Z" fill="#23C6C5" transform="matrix(1 0 0 1.04032 -4.38698 139.139)"/><path d="M387.38 132.144C387.38 131.01 388.165 130.061 389.223 129.799L389.223 122.351 382.658 122.351 382.658 136.125 381.873 136.91 384.196 136.91 387.718 133.387C387.5 133.027 387.369 132.602 387.369 132.155Z" fill="#23C6C5" transform="matrix(1 0 0 1.04032 -4.38698 139.139)"/><path d="M363.911 171.077 363.835 182.266C363.911 182.288 363.977 182.343 364.053 182.375L369.44 173.029 369.44 171.077Z" fill="#23C6C5" transform="matrix(1 0 0 1.04032 -4.38698 139.139)"/><path d="M334.706 171.077 334.706 142.297 328.784 136.375 328.784 122.351 324.105 122.351 324.105 136.801 333.899 146.594 333.899 178.329C334.815 178.58 335.502 179.42 335.502 180.412 335.502 181.623 334.52 182.594 333.321 182.594 332.121 182.594 331.151 181.623 331.151 180.412 331.151 179.42 331.827 178.58 332.743 178.329L332.743 147.074 322.949 137.281 322.949 122.351 317.3 122.351 317.3 136.91 320.147 136.91 320.147 154.577 324.105 159.55 324.105 224.526C325.022 224.777 325.698 225.606 325.698 226.609 325.698 227.808 324.727 228.79 323.527 228.79 322.328 228.79 321.346 227.808 321.346 226.609 321.346 225.606 322.033 224.777 322.949 224.526L322.949 159.964 320.147 156.442 320.147 163.28 320.234 163.356 320.234 212.791C321.15 213.042 321.826 213.882 321.826 214.874 321.826 216.085 320.856 217.055 319.656 217.055 318.456 217.055 317.475 216.085 317.475 214.874 317.475 213.882 318.151 213.042 319.067 212.791L319.067 202.267 312.436 190.773 312.436 209.138C313.353 209.4 314.029 210.229 314.029 211.232 314.029 212.431 313.058 213.402 311.848 213.402 310.637 213.402 309.677 212.431 309.677 211.232 309.677 210.229 310.353 209.4 311.27 209.138L311.27 188.766 306.209 179.998 306.209 194.917C307.125 195.168 307.802 195.997 307.802 197 307.802 198.2 306.831 199.181 305.631 199.181 304.432 199.181 303.45 198.2 303.45 197 303.45 195.997 304.126 195.168 305.053 194.917L305.053 177.991 299.404 168.22 299.404 174.065C300.331 174.316 301.007 175.156 301.007 176.148 301.007 177.359 300.026 178.329 298.826 178.329 297.627 178.329 296.656 177.359 296.656 176.148 296.656 175.156 297.332 174.316 298.248 174.065L298.248 166.213 293.722 158.383 293.722 170.205C294.649 170.456 295.325 171.295 295.325 172.288 295.325 173.498 294.344 174.469 293.144 174.469 291.945 174.469 290.974 173.498 290.974 172.288 290.974 171.295 291.65 170.456 292.566 170.205L292.566 156.376 288.935 150.095 288.935 179.213 320.147 233.25 334.706 233.25 334.706 185.636 339.842 185.636C339.842 184.622 340.519 183.793 341.435 183.531L341.435 171.077ZM328.882 224.319C327.683 224.319 326.701 223.348 326.701 222.148 326.701 221.145 327.388 220.305 328.304 220.055L328.304 152.756 320.801 145.263 321.619 144.446 329.46 152.287 329.46 220.055C330.376 220.305 331.052 221.145 331.052 222.148 331.052 223.348 330.082 224.319 328.882 224.319Z" fill="#23C6C5" transform="matrix(1 0 0 1.04032 -4.38698 139.139)"/><path d="M362.679 182.234 362.755 171.077 355.667 171.077 355.667 174.174C356.583 174.425 357.259 175.265 357.259 176.268 357.259 177.468 356.288 178.449 355.078 178.449 353.867 178.449 352.896 177.479 352.896 176.268 352.896 175.265 353.573 174.436 354.489 174.174L354.489 171.077 351.73 171.077 351.73 179.824C352.646 180.074 353.322 180.914 353.322 181.917 353.322 183.117 352.351 184.099 351.141 184.099 349.93 184.099 348.96 183.128 348.96 181.917 348.96 180.914 349.636 180.085 350.552 179.824L350.552 171.077 342.547 171.077 342.547 183.531C343.463 183.782 344.139 184.622 344.139 185.625 344.139 185.625 344.139 185.625 344.139 185.647L361.414 185.647C361.13 185.265 360.956 184.797 360.978 184.284 361.01 183.281 361.708 182.474 362.635 182.245Z" fill="#23C6C5" transform="matrix(1 0 0 1.04032 -4.38698 139.139)"/><path d="M279.469 288.379 279.469 291.225 274.583 291.225 274.583 293.711 279.381 293.711 279.381 296.558 274.583 296.558 274.583 301.302 271.627 301.302 271.627 288.389 279.469 288.389Z" fill="#23C6C5" transform="matrix(1 0 0 1.04032 -4.38698 139.139)"/><path d="M311.291 301.291 308.063 301.291 307.42 299.262 302.621 299.262 301.978 301.291 298.75 301.291 303.145 288.379 306.907 288.379 311.302 301.291ZM305.021 291.748 303.505 296.492 306.526 296.492 305.01 291.748Z" fill="#23C6C5" transform="matrix(1 0 0 1.04032 -4.38698 139.139)"/><path d="M337.28 301.553C335.349 301.553 333.746 300.909 332.459 299.633 331.194 298.357 330.562 296.754 330.562 294.835 330.562 292.915 331.194 291.323 332.459 290.058 333.724 288.771 335.327 288.117 337.28 288.117 338.436 288.117 339.504 288.389 340.486 288.924 341.467 289.458 342.242 290.189 342.809 291.105L340.268 292.577C339.984 292.076 339.581 291.683 339.057 291.41 338.534 291.138 337.945 290.996 337.28 290.996 336.124 290.996 335.207 291.345 334.531 292.043 333.855 292.73 333.517 293.657 333.517 294.824 333.517 295.991 333.855 296.918 334.531 297.605 335.207 298.303 336.124 298.652 337.28 298.652 337.934 298.652 338.523 298.51 339.057 298.226 339.592 297.943 339.995 297.561 340.268 297.059L342.809 298.532C342.253 299.459 341.489 300.178 340.508 300.713 339.526 301.247 338.446 301.52 337.28 301.52Z" fill="#23C6C5" transform="matrix(1 0 0 1.04032 -4.38698 139.139)"/><path d="M362.461 288.379 372.058 288.379 372.058 291.225 368.731 291.225 368.731 301.302 365.776 301.302 365.776 291.225 362.45 291.225 362.45 288.379Z" fill="#23C6C5" transform="matrix(1 0 0 1.04032 -4.38698 139.139)"/><path d="M402.724 299.611C401.416 300.898 399.834 301.553 397.97 301.553 396.105 301.553 394.512 300.909 393.215 299.611 391.906 298.324 391.263 296.732 391.263 294.835 391.263 292.937 391.917 291.345 393.215 290.058 394.523 288.771 396.105 288.117 397.97 288.117 399.834 288.117 401.427 288.76 402.724 290.058 404.022 291.356 404.677 292.948 404.677 294.835 404.677 296.721 404.022 298.324 402.724 299.611ZM394.196 294.835C394.196 295.969 394.556 296.885 395.265 297.605 395.974 298.314 396.879 298.673 397.959 298.673 399.038 298.673 399.922 298.314 400.631 297.605 401.339 296.896 401.721 295.958 401.721 294.835 401.721 293.711 401.361 292.795 400.631 292.065 399.922 291.356 399.027 290.996 397.959 290.996 396.89 290.996 395.974 291.356 395.265 292.065 394.556 292.773 394.196 293.701 394.196 294.835Z" fill="#23C6C5" transform="matrix(1 0 0 1.04032 -4.38698 139.139)"/><path d="M435.485 301.291 432.312 301.291 429.88 297.049 428.473 297.049 428.473 301.291 425.517 301.291 425.517 288.379 430.687 288.379C431.919 288.379 432.966 288.815 433.827 289.665 434.689 290.527 435.114 291.574 435.114 292.806 435.114 293.581 434.896 294.311 434.46 294.987 434.024 295.664 433.446 296.187 432.737 296.558L435.485 301.302ZM430.687 291.149 428.473 291.149 428.473 294.475 430.687 294.475C431.09 294.475 431.439 294.311 431.734 293.995 432.028 293.679 432.17 293.286 432.17 292.817 432.17 292.348 432.028 291.956 431.734 291.639 431.439 291.323 431.101 291.159 430.687 291.159Z" fill="#23C6C5" transform="matrix(1 0 0 1.04032 -4.38698 139.139)"/><path d="M462.847 288.379 466.206 288.379 461.866 296.329 461.866 301.291 458.91 301.291 458.91 296.329 454.57 288.379 457.929 288.379 460.383 293.362 462.836 288.379Z" fill="#23C6C5" transform="matrix(1 0 0 1.04032 -4.38698 139.139)"/><path d="M99.7899 387.949 86.7467 387.949 86.7467 391.832 90.6727 391.832 95.1549 396.486 95.1549 393.508 97.9141 393.508 95.4276 390.927 95.9729 390.361 99.0047 393.508 101.469 393.508C103.869 393.508 105.875 394.187 107.511 395.523L117.512 395.523C117.043 394.516 116.476 393.553 115.821 392.636L105.45 392.636 99.7899 387.96Z" fill="#0F4C4E" transform="matrix(1 0 0 1.00206 97 9.27106)"/><path d="M105.723 391.832 115.243 391.832C114.916 391.414 114.578 391.006 114.207 390.61 113.989 390.383 113.76 390.179 113.542 389.964L107.991 389.964 103.694 385.503 103.923 385.266C103.127 385.164 102.32 385.096 101.48 385.096L91.447 385.096 91.0544 385.503 90.6618 385.096 86.7576 385.096 86.7576 387.145 100.062 387.145 105.723 391.821Z" fill="#0F4C4E" transform="matrix(1 0 0 1.00206 97 9.27106)"/><path d="M108.514 412.008C107.925 412.642 107.249 413.141 106.53 413.571L115.145 413.571C115.309 412.937 115.865 412.473 116.53 412.473 116.923 412.473 117.272 412.631 117.533 412.892 117.719 412.484 117.904 412.088 118.068 411.669L108.776 411.669C108.678 411.782 108.613 411.906 108.514 412.008Z" fill="#0F4C4E" transform="matrix(1 0 0 1.00206 97 9.27106)"/><path d="M115.156 414.363 104.785 414.363C103.77 414.692 102.68 414.907 101.48 414.907L95.1659 414.907 95.1659 414.363 92.9411 414.363 86.7576 407.944 86.7576 417.703 88.2408 416.164 96.0492 416.164C96.2128 415.53 96.769 415.065 97.4342 415.065 98.2303 415.065 98.8738 415.733 98.8738 416.56 98.8738 417.386 98.2303 418.054 97.4342 418.054 96.769 418.054 96.2237 417.59 96.0492 416.956L88.557 416.956 86.7576 418.824 86.7576 423.308 87.1502 423.308 90.7382 419.402 112.735 419.243C113.237 418.813 113.727 418.349 114.196 417.851 114.927 417.069 115.559 416.243 116.127 415.394 115.658 415.247 115.287 414.862 115.145 414.363Z" fill="#0F4C4E" transform="matrix(1 0 0 1.00206 97 9.27106)"/><path d="M88.208 423.308 101.469 423.308C105.395 423.308 108.809 422.21 111.732 420.047L91.0762 420.183Z" fill="#0F4C4E" transform="matrix(1 0 0 1.00206 97 9.27106)"/><path d="M112.68 389.16C110.336 387.145 107.653 385.877 104.643 385.368L108.296 389.16Z" fill="#0F4C4E" transform="matrix(1 0 0 1.00206 97 9.27106)"/><path d="M109.987 398.58 117.904 398.58C117.991 398.275 118.166 398.003 118.395 397.811 118.231 397.301 118.057 396.814 117.861 396.327L108.373 396.327C108.373 396.327 108.471 396.418 108.514 396.463 109.114 397.086 109.583 397.811 109.987 398.592Z" fill="#0F4C4E" transform="matrix(1 0 0 1.00206 97 9.27106)"/><path d="M196.553 266.098 196.553 262.619 191.155 257.221 188.134 257.221 188.134 260.591 191.045 260.591Z" fill="#0F4C4E" transform="matrix(1 0 0 1.04032 -4.38698 139.139)"/><path d="M111.23 404.558 119.333 404.558C119.333 404.434 119.344 404.321 119.344 404.196 119.344 402.883 119.235 401.626 119.038 400.426 118.493 400.324 118.046 399.916 117.893 399.373L110.357 399.373C110.925 400.777 111.252 402.373 111.252 404.207 111.252 404.332 111.23 404.445 111.23 404.57Z" fill="#0F4C4E" transform="matrix(1 0 0 1.00206 97 9.27106)"/><path d="M196.553 261.54 196.553 258.159 191.754 253.35 188.134 253.35 188.134 256.458 191.471 256.458Z" fill="#0F4C4E" transform="matrix(1 0 0 1.04032 -4.38698 139.139)"/><path d="M111.164 405.362C111.012 407.525 110.423 409.37 109.376 410.876L118.319 410.876C118.875 409.155 119.202 407.321 119.3 405.362Z" fill="#0F4C4E" transform="matrix(1 0 0 1.00206 97 9.27106)"/><path d="M196.553 273.514 196.553 267.189 190.729 261.365 188.134 261.365 188.134 267.014 194.644 273.514Z" fill="#0F4C4E" transform="matrix(1 0 0 1.04032 -4.38698 139.139)"/><path d="M124.109 391.832 127.479 391.832C127.643 391.198 128.199 390.734 128.864 390.734 129.66 390.734 130.304 391.402 130.304 392.229 130.304 392.5 130.217 392.738 130.097 392.953 130.435 392.75 130.762 392.5 131.067 392.195 131.7 391.538 132.103 390.791 132.311 389.964L123.183 389.964C123.346 390.644 123.662 391.266 124.099 391.832Z" fill="#0F4C4E" transform="matrix(1 0 0 1.00206 97 9.27106)"/><path d="M132.496 388.696C132.496 387.349 132.027 386.205 131.078 385.254 130.838 384.994 130.587 384.779 130.315 384.586L125.178 384.586C124.906 384.779 124.644 384.994 124.393 385.254 123.488 386.205 123.03 387.349 123.03 388.696 123.03 388.855 123.063 389.002 123.073 389.16L132.452 389.16C132.463 389.002 132.496 388.855 132.496 388.696Z" fill="#0F4C4E" transform="matrix(1 0 0 1.00206 97 9.27106)"/><path d="M127.479 392.625 124.917 392.625C125.745 393.27 126.694 393.61 127.763 393.61 127.937 393.61 128.09 393.576 128.254 393.565 127.883 393.384 127.599 393.044 127.479 392.625Z" fill="#0F4C4E" transform="matrix(1 0 0 1.00206 97 9.27106)"/><path d="M123.815 404.558 128.079 404.558C128.243 403.924 128.799 403.46 129.464 403.46 130.26 403.46 130.904 404.128 130.904 404.955 130.904 405.781 130.26 406.449 129.464 406.449 128.799 406.449 128.254 405.985 128.079 405.351L123.815 405.351 123.815 410.865 129.17 410.865C129.333 410.231 129.89 409.767 130.555 409.767 131.035 409.767 131.438 410.027 131.7 410.401L131.7 396.305 123.815 396.305 123.815 404.547Z" fill="#0F4C4E" transform="matrix(1 0 0 1.00206 97 9.27106)"/><path d="M130.555 412.767C129.89 412.767 129.344 412.303 129.17 411.669L123.815 411.669 123.815 423.308 131.7 423.308 131.7 412.133C131.438 412.507 131.035 412.767 130.555 412.767Z" fill="#0F4C4E" transform="matrix(1 0 0 1.00206 97 9.27106)"/><path d="M136.629 412.925C137.185 415.179 138.254 417.183 139.857 418.938 141.439 420.647 143.249 421.802 145.299 422.425L147.164 422.425C147.328 421.791 147.884 421.326 148.549 421.326 149.345 421.326 149.989 421.994 149.989 422.821 149.989 422.855 149.967 422.889 149.967 422.934 152.224 422.776 154.111 422.017 155.638 420.636L144.056 420.636 136.618 412.925Z" fill="#0F4C4E" transform="matrix(1 0 0 1.00206 97 9.27106)"/><path d="M147.11 403.619C148.08 403.075 149.171 402.781 150.425 402.781 152.246 402.781 153.773 403.358 154.994 404.525 155.103 404.626 155.169 404.74 155.267 404.853L164.46 404.853 164.46 402.588 151.755 402.588 146.553 397.188 147.099 396.622 152.072 401.785 164.46 401.785 164.46 398.897 156.576 398.897 153.01 395.942C151.843 395.478 150.545 395.24 149.116 395.24 146.019 395.24 143.369 396.203 141.144 398.105L141.809 398.105 147.12 403.619Z" fill="#0F4C4E" transform="matrix(1 0 0 1.00206 97 9.27106)"/><path d="M144.83 405.895C145.103 405.396 145.419 404.932 145.844 404.536 146.03 404.355 146.237 404.219 146.444 404.06L141.482 398.909 140.283 398.909C140.141 399.056 139.988 399.192 139.846 399.35 139.05 400.211 138.396 401.139 137.862 402.136L141.199 402.136 144.83 405.906Z" fill="#0F4C4E" transform="matrix(1 0 0 1.00206 97 9.27106)"/><path d="M156.761 408.872 159.073 408.872C159.237 408.238 159.793 407.774 160.458 407.774 161.254 407.774 161.898 408.442 161.898 409.268 161.898 410.095 161.254 410.763 160.458 410.763 159.793 410.763 159.248 410.299 159.073 409.665L156.739 409.665C156.717 410.072 156.663 410.469 156.576 410.842L164.46 410.842 164.46 405.657 155.878 405.657C156.434 406.551 156.728 407.627 156.761 408.872Z" fill="#0F4C4E" transform="matrix(1 0 0 1.00206 97 9.27106)"/><path d="M265.847 256.828 260.482 256.828 260.264 256.61 258.17 256.61 258.17 258.584 258.224 258.628 265.847 258.628Z" fill="#0F4C4E" transform="matrix(1 0 0 1.04032 -4.38698 139.139)"/><path d="M147.982 415.031C147.197 414.737 146.477 414.307 145.844 413.707 145.147 413.05 144.688 412.246 144.394 411.318L140.457 407.23 136.291 407.23C136.226 407.842 136.171 408.476 136.171 409.121 136.171 409.948 136.237 410.74 136.357 411.522L144.383 419.855 156.423 419.855C156.543 419.719 156.674 419.594 156.783 419.447L156.783 419.855 164.46 419.855 164.46 417.952 150.796 417.952 147.993 415.043Z" fill="#0F4C4E" transform="matrix(1 0 0 1.00206 97 9.27106)"/><path d="M144.121 409.891C144.1 409.631 144.056 409.382 144.056 409.11 144.056 408.193 144.198 407.378 144.47 406.642L140.882 402.917 137.458 402.917C136.956 404.015 136.596 405.181 136.389 406.415L140.773 406.415Z" fill="#0F4C4E" transform="matrix(1 0 0 1.00206 97 9.27106)"/><path d="M138.112 428.38C138.265 428.663 138.45 428.924 138.614 429.195L140.893 426.704 138.101 428.38Z" fill="#0F4C4E" transform="matrix(1 0 0 1.00206 97 9.27106)"/><path d="M150.839 427.78C149.105 427.78 147.677 427.327 146.542 426.433L142.191 426.467 139.05 429.886C140.501 431.89 142.431 433.305 144.852 434.12L148.713 430.112 161.93 430.112C162.814 429.026 163.479 427.757 163.893 426.308L155.082 426.365C154.056 427.293 152.65 427.769 150.85 427.769Z" fill="#0F4C4E" transform="matrix(1 0 0 1.00206 97 9.27106)"/><path d="M156.358 411.635C156.063 412.427 155.605 413.118 154.994 413.695 153.762 414.862 152.246 415.439 150.425 415.439 150.065 415.439 149.727 415.394 149.389 415.348L151.112 417.137 164.46 417.137 164.46 411.623 156.358 411.623Z" fill="#0F4C4E" transform="matrix(1 0 0 1.00206 97 9.27106)"/><path d="M156.783 421.938C156.783 423.421 156.434 424.621 155.78 425.572L164.079 425.516C164.319 424.417 164.46 423.229 164.46 421.938L164.46 420.636 156.783 420.636Z" fill="#0F4C4E" transform="matrix(1 0 0 1.00206 97 9.27106)"/><path d="M145.703 434.358C147.164 434.754 148.778 434.981 150.578 434.981 152.148 434.981 153.62 434.788 154.983 434.426L150.599 434.426 150.599 433.634 157.252 433.634C158.386 433.124 159.444 432.467 160.414 431.652 160.698 431.414 160.971 431.165 161.221 430.905L149.029 430.905Z" fill="#0F4C4E" transform="matrix(1 0 0 1.00206 97 9.27106)"/><path d="M144.841 424.338 142.638 425.663 145.746 425.64C145.408 425.255 145.103 424.825 144.841 424.338Z" fill="#0F4C4E" transform="matrix(1 0 0 1.00206 97 9.27106)"/><path d="M170.24 396.237 178.125 396.237 178.125 398.105 170.24 398.105Z" fill="#0F4C4E" transform="matrix(1 0 0 1.00206 97 9.27106)"/><path d="M170.24 398.909 178.125 398.909 178.125 401.796 170.24 401.796Z" fill="#0F4C4E" transform="matrix(1 0 0 1.00206 97 9.27106)"/><path d="M170.24 403.777C170.295 403.777 170.35 403.743 170.404 403.743 171.2 403.743 171.844 404.411 171.844 405.238 171.844 406.064 171.2 406.732 170.404 406.732 170.35 406.732 170.295 406.71 170.24 406.698L170.24 410.819 178.125 410.819 178.125 402.577 170.24 402.577 170.24 403.766Z" fill="#0F4C4E" transform="matrix(1 0 0 1.00206 97 9.27106)"/><path d="M170.24 411.635 178.125 411.635 178.125 417.149 170.24 417.149Z" fill="#0F4C4E" transform="matrix(1 0 0 1.00206 97 9.27106)"/><path d="M169.455 388.696C169.455 389.183 169.532 389.636 169.652 390.066L178.714 390.066C178.834 389.625 178.921 389.172 178.921 388.696 178.921 387.926 178.747 387.224 178.431 386.579L169.924 386.579C169.619 387.224 169.455 387.915 169.455 388.696Z" fill="#0F4C4E" transform="matrix(1 0 0 1.00206 97 9.27106)"/><path d="M170.818 392.195C171.767 393.146 172.891 393.61 174.188 393.61 175.486 393.61 176.588 393.134 177.504 392.195 177.896 391.787 178.191 391.346 178.42 390.87L169.957 390.87C170.175 391.334 170.459 391.787 170.84 392.195Z" fill="#0F4C4E" transform="matrix(1 0 0 1.00206 97 9.27106)"/><path d="M170.24 417.941 178.125 417.941 178.125 423.308 170.24 423.308Z" fill="#0F4C4E" transform="matrix(1 0 0 1.00206 97 9.27106)"/><path d="M177.493 385.266C176.577 384.281 175.475 383.794 174.177 383.794 172.88 383.794 171.756 384.281 170.808 385.266 170.644 385.435 170.513 385.617 170.382 385.798L177.918 385.798C177.776 385.617 177.645 385.435 177.482 385.266Z" fill="#0F4C4E" transform="matrix(1 0 0 1.00206 97 9.27106)"/><path d="M295.282 254.887 287.397 254.887 287.397 256.61 283.187 256.61 283.187 258.628 289.306 258.628 295.282 264.604 295.282 264.19 300.702 264.19 300.702 262.947 299.262 262.947 294.06 257.755 294.606 257.21 299.579 262.183 300.702 262.183 300.702 256.708 300.582 256.61 295.282 256.61Z" fill="#0F4C4E" transform="matrix(1 0 0 1.04032 -4.38698 139.139)"/><path d="M195.912 415.79 197.221 417.149 199.304 417.149 199.304 415.881C197.854 415.96 196.73 415.926 195.912 415.79Z" fill="#0F4C4E" transform="matrix(1 0 0 1.00206 97 9.27106)"/><path d="M192.346 423.229C192.663 423.285 193.001 423.342 193.35 423.387 193.328 423.33 193.295 423.285 193.284 423.229Z" fill="#0F4C4E" transform="matrix(1 0 0 1.00206 97 9.27106)"/><path d="M295.282 268.999 295.282 265.695 288.989 259.402 283.187 259.402 283.187 262.499 288.717 262.499 295.205 268.999Z" fill="#0F4C4E" transform="matrix(1 0 0 1.04032 -4.38698 139.139)"/><path d="M186.239 416.549C186.621 418.938 187.504 420.704 188.9 421.836 189.184 422.062 189.522 422.255 189.871 422.436L193.284 422.436C193.448 421.802 194.004 421.338 194.669 421.338 195.465 421.338 196.109 422.006 196.109 422.832 196.109 423.081 196.032 423.308 195.923 423.523 196.959 423.523 198.083 423.444 199.304 423.308L199.304 420.636 190.176 420.636Z" fill="#0F4C4E" transform="matrix(1 0 0 1.00206 97 9.27106)"/><path d="M291.966 250.252 289.676 252.543 289.131 251.997 290.418 250.71 287.397 251.616 287.397 254.124 295.282 254.124 295.282 249.249Z" fill="#0F4C4E" transform="matrix(1 0 0 1.04032 -4.38698 139.139)"/><path d="M199.315 419.843 199.315 417.941 196.916 417.941 186.588 407.219 186.021 407.219 186.021 413.537C186.021 414.148 186.054 414.714 186.097 415.258L190.514 419.843 199.326 419.843Z" fill="#0F4C4E" transform="matrix(1 0 0 1.00206 97 9.27106)"/><path d="M193.917 413.707C193.917 413.65 193.895 413.593 193.895 413.537L193.895 409.665 193.502 409.665 187.002 402.917 181.8 402.917 181.8 403.868 186.01 403.868 186.01 406.415 186.904 406.415 193.917 413.695Z" fill="#0F4C4E" transform="matrix(1 0 0 1.00206 97 9.27106)"/><path d="M222.337 398.105 224.714 398.105C224.878 397.471 225.434 397.007 226.099 397.007 226.895 397.007 227.539 397.675 227.539 398.501 227.539 399.328 226.895 399.996 226.099 399.996 225.434 399.996 224.889 399.531 224.714 398.897L206.142 398.897C205.967 399.079 205.782 399.248 205.608 399.441 204.953 400.177 204.397 400.958 203.917 401.785L230.211 401.785 230.211 396.225 222.326 396.225 222.326 398.094Z" fill="#0F4C4E" transform="matrix(1 0 0 1.00206 97 9.27106)"/><path d="M205.193 408.872C205.357 408.238 205.913 407.774 206.578 407.774 207.374 407.774 208.018 408.442 208.018 409.268 208.018 410.095 207.374 410.763 206.578 410.763 205.913 410.763 205.368 410.299 205.193 409.665L201.943 409.665C201.943 410.061 201.965 410.446 201.987 410.842L209.915 410.842C209.872 410.469 209.828 410.084 209.828 409.665 209.828 408.068 210.199 406.732 210.908 405.657L202.401 405.657C202.161 406.676 202.02 407.751 201.965 408.872L205.182 408.872Z" fill="#0F4C4E" transform="matrix(1 0 0 1.00206 97 9.27106)"/><path d="M202.619 404.853 211.518 404.853C211.518 404.853 211.54 404.819 211.562 404.808 212.718 403.607 214.223 403.007 216.088 403.007 217.953 403.007 219.458 403.607 220.614 404.808 221.77 406.008 222.348 407.627 222.348 409.665 222.348 410.084 222.304 410.469 222.26 410.842L225.325 410.842C225.489 410.208 226.045 409.744 226.71 409.744 227.506 409.744 228.149 410.412 228.149 411.238 228.149 412.065 227.506 412.733 226.71 412.733 226.045 412.733 225.499 412.269 225.325 411.635L222.108 411.635C221.846 412.767 221.366 413.741 220.614 414.522 219.458 415.722 217.953 416.322 216.088 416.322 214.223 416.322 212.718 415.722 211.562 414.522 210.809 413.741 210.33 412.767 210.068 411.635L202.052 411.635C202.27 413.65 202.816 415.484 203.699 417.149L226.405 417.149C226.568 416.515 227.124 416.05 227.79 416.05 228.586 416.05 229.229 416.718 229.229 417.545 229.229 418.371 228.586 419.039 227.79 419.039 227.124 419.039 226.579 418.575 226.405 417.941L204.146 417.941C204.561 418.609 205.019 419.243 205.542 419.843L212.38 419.843C212.544 419.209 213.1 418.745 213.765 418.745 214.561 418.745 215.204 419.413 215.204 420.24 215.204 421.066 214.561 421.734 213.765 421.734 213.1 421.734 212.554 421.27 212.38 420.636L206.305 420.636C208.617 422.912 211.344 424.066 214.496 424.066 217.898 424.066 220.505 422.957 222.326 420.738L222.326 423.308 230.211 423.308 230.211 402.6 203.492 402.6C203.132 403.324 202.837 404.072 202.608 404.864Z" fill="#0F4C4E" transform="matrix(1 0 0 1.00206 97 9.27106)"/><path d="M214.507 395.252C213.798 395.252 213.122 395.331 212.456 395.444L216.786 395.444C216.066 395.32 215.314 395.252 214.507 395.252Z" fill="#0F4C4E" transform="matrix(1 0 0 1.00206 97 9.27106)"/><path d="M219.327 396.237 209.861 396.237C208.847 396.701 207.898 397.324 206.993 398.105L221.901 398.105C221.159 397.324 220.297 396.69 219.327 396.237Z" fill="#0F4C4E" transform="matrix(1 0 0 1.00206 97 9.27106)"/><path d="M345.284 279.567 345.284 272.347 340.344 267.407 337.4 267.407 337.4 272.696 344.27 279.567Z" fill="#0F4C4E" transform="matrix(1 0 0 1.04032 -4.38698 139.139)"/><path d="M345.284 271.257 345.284 267.778 340.78 263.274 337.4 263.274 337.4 266.644 340.671 266.644Z" fill="#0F4C4E" transform="matrix(1 0 0 1.04032 -4.38698 139.139)"/><path d="M337.4 244.527 337.4 245.53 338.403 244.527Z" fill="#0F4C4E" transform="matrix(1 0 0 1.04032 -4.38698 139.139)"/><path d="M345.284 266.687 345.284 263.306 341.369 259.402 337.4 259.402 337.4 262.499 341.097 262.499Z" fill="#0F4C4E" transform="matrix(1 0 0 1.04032 -4.38698 139.139)"/><path d="M345.284 282.828 339.559 282.828 339.493 282.904 345.284 282.904Z" fill="#0F4C4E" transform="matrix(1 0 0 1.04032 -4.38698 139.139)"/><path d="M337.4 249.882 342.754 244.527 339.493 244.527 337.4 246.621Z" fill="#0F4C4E" transform="matrix(1 0 0 1.04032 -4.38698 139.139)"/><path d="M345.284 248.235 345.284 244.527 343.845 244.527 337.4 250.972 337.4 254.124 345.284 254.124 345.284 249.314 342.056 252.543 341.511 251.997Z" fill="#0F4C4E" transform="matrix(1 0 0 1.04032 -4.38698 139.139)"/><path d="M345.284 254.887 337.4 254.887 337.4 258.628 341.685 258.628 345.284 262.227Z" fill="#0F4C4E" transform="matrix(1 0 0 1.04032 -4.38698 139.139)"/><path d="M337.4 282.904 338.403 282.904 339.243 282.064 345.284 282.064 345.284 280.33 343.943 280.33 337.4 273.776Z" fill="#0F4C4E" transform="matrix(1 0 0 1.04032 -4.38698 139.139)"/><path d="M266.767 398.909 275.175 398.909 275.175 401.796 266.767 401.796Z" fill="#0F4C4E" transform="matrix(1 0 0 1.00206 97 9.27106)"/><path d="M386.028 250.896 386.028 247.919 383.051 250.896Z" fill="#0F4C4E" transform="matrix(1 0 0 1.04032 -4.38698 139.139)"/><path d="M266.767 411.635 275.175 411.635 275.175 417.149 266.767 417.149Z" fill="#0F4C4E" transform="matrix(1 0 0 1.00206 97 9.27106)"/><path d="M383.498 246.097 382.833 246.763 386.028 246.763 386.028 246.097Z" fill="#0F4C4E" transform="matrix(1 0 0 1.04032 -4.38698 139.139)"/><path d="M266.767 418.892C267.257 419.13 267.606 419.639 267.606 420.24 267.606 420.84 267.257 421.349 266.767 421.587L266.767 423.308 275.175 423.308 275.175 417.941 266.767 417.941Z" fill="#0F4C4E" transform="matrix(1 0 0 1.00206 97 9.27106)"/><path d="M266.767 404.853 267.519 404.853C267.683 404.219 268.239 403.755 268.904 403.755 269.7 403.755 270.344 404.423 270.344 405.249 270.344 406.076 269.7 406.744 268.904 406.744 268.239 406.744 267.694 406.279 267.519 405.645L266.767 405.645 266.767 410.831 275.175 410.831 275.175 402.588 266.767 402.588Z" fill="#0F4C4E" transform="matrix(1 0 0 1.00206 97 9.27106)"/><path d="M382.407 246.097 358.687 246.097 358.687 246.763 381.742 246.763Z" fill="#0F4C4E" transform="matrix(1 0 0 1.04032 -4.38698 139.139)"/><path d="M358.687 247.537 358.687 254.2 368.153 254.2 368.153 256.065 376.562 256.065 376.562 254.2 379.55 254.2 379.55 254.124 386.028 254.124 386.028 251.659 382.287 251.659 379.55 251.659 361.785 251.659 361.785 250.896 379.55 250.896 381.971 250.896 385.33 247.537 382.058 247.537 381.011 248.595 379.55 248.595 379.55 247.82 380.684 247.82 380.979 247.537Z" fill="#0F4C4E" transform="matrix(1 0 0 1.04032 -4.38698 139.139)"/><path d="M266.767 396.237 275.175 396.237 275.175 398.105 266.767 398.105Z" fill="#0F4C4E" transform="matrix(1 0 0 1.00206 97 9.27106)"/><path d="M407.905 256.828 404.568 256.828 404.349 256.61 400.489 256.61 400.347 257.068 402.31 258.628 408.428 258.628Z" fill="#0F4C4E" transform="matrix(1 0 0 1.04032 -4.38698 139.139)"/><path d="M392.604 256.61 384.185 256.61 384.828 258.628 387.271 258.628 393.771 265.128 394.883 265.128 393.226 258.955 392.026 257.755 392.571 257.21 392.833 257.472Z" fill="#0F4C4E" transform="matrix(1 0 0 1.04032 -4.38698 139.139)"/><path d="M290.944 422.436 291.25 422.436C291.413 421.802 291.97 421.338 292.635 421.338 293.431 421.338 294.074 422.006 294.074 422.832 294.074 423.002 294.031 423.161 293.987 423.308L298.578 423.308 299.353 420.636 290.399 420.636 290.955 422.425Z" fill="#0F4C4E" transform="matrix(1 0 0 1.00206 97 9.27106)"/><path d="M396.257 277.735 388.449 269.926 391.535 279.567 400.958 279.567 401.503 277.735Z" fill="#0F4C4E" transform="matrix(1 0 0 1.04032 -4.38698 139.139)"/><path d="M402.048 259.402 400.118 257.864 398.864 262.183 409.464 262.183 408.657 259.402Z" fill="#0F4C4E" transform="matrix(1 0 0 1.04032 -4.38698 139.139)"/><path d="M305.983 419.843 310.357 419.843C310.52 419.209 311.076 418.745 311.742 418.745 312.538 418.745 313.181 419.413 313.181 420.24 313.181 421.066 312.538 421.734 311.742 421.734 311.076 421.734 310.531 421.27 310.357 420.636L306.212 420.636 306.987 423.308 314.348 423.308 316.006 417.941 305.449 417.941 305.994 419.843Z" fill="#0F4C4E" transform="matrix(1 0 0 1.00206 97 9.27106)"/><path d="M424.078 256.828 415.669 256.828 415.19 258.628 423.5 258.628Z" fill="#0F4C4E" transform="matrix(1 0 0 1.04032 -4.38698 139.139)"/><path d="M312.058 404.853 313.105 404.853C313.268 404.219 313.824 403.755 314.49 403.755 315.286 403.755 315.929 404.423 315.929 405.249 315.929 406.076 315.286 406.744 314.49 406.744 313.824 406.744 313.279 406.279 313.105 405.645L311.851 405.645 310.564 410.638 309.168 405.645 296.408 405.645 295.503 408.861 302.744 408.861 302.788 408.725 302.831 408.861 303.17 408.861C303.333 408.227 303.889 407.763 304.555 407.763 305.351 407.763 305.994 408.431 305.994 409.257 305.994 410.084 305.351 410.752 304.555 410.752 303.889 410.752 303.344 410.287 303.17 409.653L303.06 409.653 303.399 410.831 318.198 410.831 320.739 402.588 312.658 402.588 312.069 404.853Z" fill="#0F4C4E" transform="matrix(1 0 0 1.00206 97 9.27106)"/><path d="M419.334 271.66 405.004 271.66 406.596 276.971 417.633 276.971Z" fill="#0F4C4E" transform="matrix(1 0 0 1.04032 -4.38698 139.139)"/><path d="M386.072 262.499 386.682 262.499 393.171 268.999 395.919 268.999 395.09 265.891 393.455 265.891 386.955 259.402 385.079 259.402Z" fill="#0F4C4E" transform="matrix(1 0 0 1.04032 -4.38698 139.139)"/><path d="M398.646 262.947 398.002 265.128 410.326 265.128 409.693 262.947Z" fill="#0F4C4E" transform="matrix(1 0 0 1.04032 -4.38698 139.139)"/><path d="M422.366 262.183 423.249 259.402 414.982 259.402 414.241 262.183Z" fill="#0F4C4E" transform="matrix(1 0 0 1.04032 -4.38698 139.139)"/><path d="M291.184 423.229 291.206 423.308 291.272 423.308C291.272 423.308 291.25 423.263 291.239 423.229L291.173 423.229Z" fill="#0F4C4E" transform="matrix(1 0 0 1.00206 97 9.27106)"/><path d="M396.127 269.763 392.855 269.763 386.355 263.274 386.311 263.274 387.936 268.323 396.585 276.971 401.732 276.971 403.324 271.66 397.479 271.66 397.479 270.897 403.553 270.897 403.891 269.763 396.661 269.763 396.388 270.7Z" fill="#0F4C4E" transform="matrix(1 0 0 1.04032 -4.38698 139.139)"/><path d="M427.295 282.904 428.516 282.904 429.356 282.064 435.18 282.064 435.18 280.33 434.056 280.33 427.295 273.569Z" fill="#0F4C4E" transform="matrix(1 0 0 1.04032 -4.38698 139.139)"/><path d="M329.856 383.794C328.558 383.794 327.435 384.281 326.486 385.266 325.581 386.217 325.123 387.36 325.123 388.708 325.123 389.126 325.188 389.523 325.275 389.908L331.012 383.952C330.641 383.862 330.259 383.794 329.856 383.794Z" fill="#0F4C4E" transform="matrix(1 0 0 1.00206 97 9.27106)"/><path d="M326.486 392.195C327.108 392.817 327.816 393.214 328.591 393.429L331.099 393.429C331.862 393.214 332.56 392.817 333.16 392.195 334.109 391.21 334.578 390.044 334.578 388.696 334.578 388.424 334.545 388.164 334.502 387.904L330.772 391.776 330.227 391.21 334.273 387.009C334.044 386.364 333.673 385.775 333.149 385.254 332.735 384.813 332.277 384.484 331.786 384.235L325.526 390.734C325.755 391.255 326.061 391.742 326.464 392.183Z" fill="#0F4C4E" transform="matrix(1 0 0 1.00206 97 9.27106)"/><path d="M435.18 282.828 429.672 282.828 429.596 282.904 435.18 282.904Z" fill="#0F4C4E" transform="matrix(1 0 0 1.04032 -4.38698 139.139)"/><path d="M435.18 279.567 435.18 272.129 430.458 267.407 427.295 267.407 427.295 272.489 434.373 279.567Z" fill="#0F4C4E" transform="matrix(1 0 0 1.04032 -4.38698 139.139)"/><path d="M435.18 256.61 427.295 256.61 427.295 258.628 431.799 258.628 435.18 262.02Z" fill="#0F4C4E" transform="matrix(1 0 0 1.04032 -4.38698 139.139)"/><path d="M435.18 271.049 435.18 267.571 430.883 263.274 427.295 263.274 427.295 266.644 430.774 266.644Z" fill="#0F4C4E" transform="matrix(1 0 0 1.04032 -4.38698 139.139)"/><path d="M431.483 259.402 427.295 259.402 427.295 262.499 431.199 262.499 435.18 266.48 435.18 263.099Z" fill="#0F4C4E" transform="matrix(1 0 0 1.04032 -4.38698 139.139)"/><path d="M339.584 420.636 347.469 420.636 347.469 423.308 339.584 423.308Z" fill="#0F4C4E" transform="matrix(1 0 0 1.00206 97 9.27106)"/><path d="M347.468 408.872 347.468 408.408C347.468 407.332 347.632 406.427 347.937 405.657L339.584 405.657 339.584 408.872Z" fill="#0F4C4E" transform="matrix(1 0 0 1.00206 97 9.27106)"/><path d="M356.935 418.926C357.393 419.175 357.72 419.662 357.72 420.24 357.72 420.817 357.393 421.304 356.935 421.553L356.935 423.308 364.819 423.308 364.819 417.941 356.935 417.941Z" fill="#0F4C4E" transform="matrix(1 0 0 1.00206 97 9.27106)"/><path d="M359.345 396.237 350.228 396.237C349.301 396.701 348.505 397.324 347.85 398.105L361.831 398.105C361.09 397.312 360.25 396.701 359.345 396.237Z" fill="#0F4C4E" transform="matrix(1 0 0 1.00206 97 9.27106)"/><path d="M354.982 395.252C354.165 395.252 353.412 395.32 352.703 395.444L357.044 395.444C356.389 395.32 355.713 395.252 354.993 395.252Z" fill="#0F4C4E" transform="matrix(1 0 0 1.00206 97 9.27106)"/><path d="M448.855 271.66 442.007 271.66 442.007 270.897 448.855 270.897 448.855 269.763 440.971 269.763 440.971 276.829 441.102 276.971 448.855 276.971Z" fill="#0F4C4E" transform="matrix(1 0 0 1.04032 -4.38698 139.139)"/><path d="M341.688 396.01 339.584 396.01 339.584 400.652 340.685 401.796 364.089 401.796C363.718 400.72 363.194 399.758 362.529 398.909L345.189 398.909 341.688 396.022Z" fill="#0F4C4E" transform="matrix(1 0 0 1.00206 97 9.27106)"/><path d="M356.935 411.635 364.819 411.635 364.819 417.149 356.935 417.149Z" fill="#0F4C4E" transform="matrix(1 0 0 1.00206 97 9.27106)"/><path d="M339.584 401.785 339.584 404.853 348.319 404.853C348.45 404.638 348.592 404.411 348.755 404.23 349.617 403.268 350.816 402.781 352.354 402.781 353.717 402.781 354.83 403.222 355.67 404.094 355.888 404.321 356.073 404.581 356.237 404.853L357.633 404.853C357.796 404.219 358.352 403.755 359.018 403.755 359.814 403.755 360.457 404.423 360.457 405.249 360.457 406.076 359.814 406.744 359.018 406.744 358.352 406.744 357.807 406.279 357.633 405.645L356.607 405.645C356.826 406.257 356.924 406.959 356.924 407.74L356.924 410.831 364.808 410.831 364.808 406.54C364.808 405.091 364.634 403.777 364.318 402.588L340.358 402.588 339.573 401.773Z" fill="#0F4C4E" transform="matrix(1 0 0 1.00206 97 9.27106)"/><path d="M339.584 417.941 347.469 417.941 347.469 419.843 339.584 419.843Z" fill="#0F4C4E" transform="matrix(1 0 0 1.00206 97 9.27106)"/><path d="M444.308 256.61 446.838 258.628 448.855 258.628 448.855 256.61Z" fill="#0F4C4E" transform="matrix(1 0 0 1.04032 -4.38698 139.139)"/></g></svg>