<?xml version="1.0" encoding="UTF-8" standalone="no"?>
<!DOCTYPE svg PUBLIC "-//W3C//DTD SVG 1.1//EN" "http://www.w3.org/Graphics/SVG/1.1/DTD/svg11.dtd">
<svg width="100%" height="100%" viewBox="0 0 281 45" version="1.1" xmlns="http://www.w3.org/2000/svg" xmlns:xlink="http://www.w3.org/1999/xlink" xml:space="preserve" xmlns:serif="http://www.serif.com/" style="fill-rule:evenodd;clip-rule:evenodd;stroke-linejoin:round;stroke-miterlimit:2;">
    <g transform="matrix(-1,0,0,1,201.787,-88.5702)">
        <rect x="124.976" y="122.907" width="1.086" height="9.659" style="fill:rgb(1,171,188);"/>
    </g>
    <g transform="matrix(1,0,0,1,87.5986,34.3366)">
        <path d="M0,9.659L-1.781,9.659L-5.836,3.085C-6.27,2.375 -6.56,1.897 -6.705,1.651L-7.139,0.928L-7.168,0.928C-7.153,1.405 -7.153,1.897 -7.153,2.375L-7.153,9.659L-8.24,9.659L-8.24,0L-6.458,0L-2.939,5.763C-2.636,6.226 -2.071,7.168 -1.709,7.777L-1.101,8.775L-1.072,8.775C-1.086,8.298 -1.086,7.82 -1.086,7.328L-1.086,0L0,0L0,9.659Z" style="fill:rgb(1,171,188);fill-rule:nonzero;"/>
    </g>
    <g transform="matrix(1,0,0,1,94.3896,35.2772)">
        <path d="M0,7.777C1.057,7.777 1.81,7.559 2.143,7.169C2.578,6.647 2.693,5.997 2.693,4.085C2.693,1.68 2.621,1.203 2.187,0.638C1.839,0.174 1.289,0.001 0.231,0.001L-3.142,0.001L-3.142,7.777L0,7.777ZM-4.229,-0.941L0.231,-0.941C1.897,-0.941 2.708,-0.607 3.244,0.335C3.635,1.001 3.765,1.739 3.779,3.186C3.794,5.518 3.722,6.358 3.461,7.01C3.128,7.835 2.563,8.342 1.738,8.545C1.332,8.646 0.796,8.718 0.507,8.718L-4.229,8.718L-4.229,-0.941Z" style="fill:rgb(1,171,188);fill-rule:nonzero;"/>
    </g>
    <g transform="matrix(1,0,0,1,108.03,44.0974)">
        <path d="M0,-9.761L0,-2.997C0,-1.839 -0.116,-1.347 -0.492,-0.884C-1.042,-0.189 -1.795,0 -3.896,0C-5.199,0 -5.792,-0.073 -6.313,-0.29C-7.342,-0.71 -7.646,-1.347 -7.646,-2.997L-7.646,-9.761L-6.56,-9.761L-6.56,-2.997C-6.56,-2.201 -6.502,-1.796 -6.328,-1.55C-6.024,-1.087 -5.474,-0.942 -3.953,-0.942C-1.375,-0.942 -1.086,-1.159 -1.086,-2.997L-1.086,-9.761L0,-9.761Z" style="fill:rgb(1,171,188);fill-rule:nonzero;"/>
    </g>
    <g transform="matrix(1,0,0,1,116.182,41.3755)">
        <path d="M0,-4.418C0,-5.156 -0.058,-5.445 -0.231,-5.691C-0.492,-6.082 -0.956,-6.199 -2.215,-6.199C-3.75,-6.199 -4.257,-6.098 -4.547,-5.75C-4.778,-5.488 -4.88,-5.098 -4.88,-4.49C-4.88,-3.592 -4.663,-3.172 -4.141,-2.984C-3.837,-2.883 -3.75,-2.868 -2.187,-2.795C-0.362,-2.709 0.174,-2.607 0.608,-2.23C1.086,-1.825 1.26,-1.246 1.26,-0.117C1.26,1.23 1.014,1.91 0.406,2.287C-0.145,2.62 -0.84,2.722 -2.751,2.722C-4.475,2.722 -5.155,2.519 -5.589,1.853C-5.908,1.375 -5.995,0.94 -6.024,-0.363L-4.937,-0.363C-4.923,0.68 -4.909,0.868 -4.721,1.215C-4.46,1.708 -4.141,1.78 -2.404,1.78C-0.058,1.78 0.174,1.592 0.174,-0.219C0.174,-1.159 -0.029,-1.522 -0.623,-1.637C-0.956,-1.709 -0.956,-1.709 -3.519,-1.84C-5.3,-1.971 -5.966,-2.666 -5.966,-4.389C-5.966,-6.575 -5.228,-7.14 -2.346,-7.14C0.376,-7.14 1.086,-6.604 1.086,-4.576L1.086,-4.418L0,-4.418Z" style="fill:rgb(1,171,188);fill-rule:nonzero;"/>
    </g>
    <g transform="matrix(1,0,0,1,122.959,34.3366)">
        <path d="M0,9.659L-1.086,9.659L-1.086,1.013L-4.229,1.013L-4.229,0L3.127,0L3.127,1.029L0,1.013L0,9.659Z" style="fill:rgb(1,171,188);fill-rule:nonzero;"/>
    </g>
    <g transform="matrix(1,0,0,1,132.009,39.1583)">
        <path d="M0,0.015C0.912,0.015 1.405,-0.115 1.738,-0.449C2.042,-0.738 2.1,-1.027 2.1,-2.027C2.1,-3.504 1.752,-3.881 0.376,-3.881L-3.142,-3.881L-3.142,0.015L0,0.015ZM-4.229,-4.822L0.362,-4.822C2.447,-4.822 3.186,-4.083 3.186,-2.041C3.186,-0.259 2.824,0.29 1.521,0.508L1.521,0.522C2.548,0.609 3.055,1.217 3.055,2.39L3.055,4.837L1.969,4.837L1.969,2.636C1.969,1.912 1.839,1.55 1.506,1.276C1.173,1.014 0.912,0.956 0.145,0.956L-3.142,0.956L-3.142,4.837L-4.229,4.837L-4.229,-4.822Z" style="fill:rgb(1,171,188);fill-rule:nonzero;"/>
    </g>
    <g transform="matrix(1,0,0,1,140.885,38.3765)">
        <path d="M0,1.579L0,5.619L-1.086,5.619L-1.086,1.579L-4.634,-4.04L-3.374,-4.04L-1.303,-0.781C-1.014,-0.317 -0.753,0.102 -0.521,0.478L-0.493,0.478C-0.203,0.015 0.058,-0.405 0.29,-0.781L2.36,-4.04L3.649,-4.04L0,1.579Z" style="fill:rgb(1,171,188);fill-rule:nonzero;"/>
    </g>
    <g transform="matrix(1,0,0,1,157.942,37.5671)">
        <path d="M0,3.199C0,4.314 -0.014,4.619 -0.072,4.937C-0.261,5.734 -0.724,6.182 -1.607,6.4C-1.955,6.486 -2.881,6.53 -4.214,6.53C-6.024,6.53 -6.806,6.226 -7.298,5.357C-7.573,4.865 -7.675,4.429 -7.732,3.445C-7.761,3.069 -7.791,1.998 -7.791,1.606C-7.791,-0.508 -7.791,-0.711 -7.689,-1.26C-7.53,-2.245 -6.792,-2.985 -5.734,-3.187C-5.184,-3.287 -4.489,-3.331 -3.258,-3.331C-1.462,-3.331 -0.782,-3.057 -0.391,-2.188C-0.203,-1.768 -0.159,-1.522 -0.116,-0.276L-1.202,-0.276C-1.216,-1.289 -1.26,-1.594 -1.434,-1.883C-1.665,-2.26 -2.158,-2.405 -3.287,-2.405C-3.301,-2.405 -3.432,-2.405 -3.591,-2.391L-4.547,-2.362C-6.342,-2.318 -6.646,-1.955 -6.646,0.115C-6.646,2.851 -6.618,3.707 -6.458,4.386C-6.255,5.371 -5.807,5.589 -3.968,5.589C-2.027,5.589 -1.419,5.429 -1.202,4.893C-1.086,4.59 -1.071,4.373 -1.071,3.474L-1.071,3.199L0,3.199Z" style="fill:rgb(1,171,188);fill-rule:nonzero;"/>
    </g>
    <g transform="matrix(1,0,0,1,161.345,42.6931)">
        <path d="M0,-7.053C-0.391,-6.604 -0.492,-6.097 -0.492,-4.548C-0.492,-1.681 -0.492,-1.681 -0.449,-1.319C-0.362,-0.392 -0.116,0.057 0.406,0.26C0.796,0.419 1.202,0.463 2.491,0.463C4.257,0.463 4.735,0.376 5.069,-0.001C5.459,-0.449 5.561,-0.956 5.561,-2.506C5.561,-5.373 5.561,-5.373 5.517,-5.736C5.43,-6.661 5.184,-7.111 4.663,-7.314C4.272,-7.473 3.852,-7.517 2.578,-7.517C0.811,-7.517 0.333,-7.429 0,-7.053M5.271,-8.081C6.01,-7.734 6.415,-7.053 6.575,-5.909C6.632,-5.446 6.647,-5.214 6.647,-3.94C6.647,-1.681 6.632,-1.347 6.473,-0.609C6.299,0.231 5.879,0.796 5.184,1.085C4.577,1.331 4.026,1.404 2.665,1.404C1.014,1.404 0.522,1.346 -0.13,1.071C-0.811,0.781 -1.216,0.245 -1.404,-0.609C-1.564,-1.363 -1.578,-1.652 -1.578,-3.925C-1.578,-6.025 -1.491,-6.618 -1.042,-7.327C-0.507,-8.197 0.319,-8.457 2.534,-8.457C4.04,-8.457 4.692,-8.37 5.271,-8.081" style="fill:rgb(1,171,188);fill-rule:nonzero;"/>
    </g>
    <g transform="matrix(1,0,0,1,180.879,34.3366)">
        <path d="M0,9.659L-1.087,9.659L-1.087,1.927C-1.087,1.551 -1.087,1.159 -1.072,0.767L-1.101,0.767C-1.159,0.913 -1.202,1.043 -1.246,1.144C-1.274,1.231 -1.318,1.347 -1.448,1.666L-4.735,9.659L-5.836,9.659L-9.123,1.767C-9.253,1.463 -9.37,1.174 -9.485,0.869L-9.515,0.869C-9.499,1.231 -9.499,1.579 -9.499,1.927L-9.499,9.659L-10.586,9.659L-10.586,0L-8.703,0L-6.126,6.256C-5.851,6.922 -5.677,7.371 -5.575,7.603C-5.489,7.82 -5.401,8.037 -5.315,8.269L-5.286,8.269L-4.952,7.43L-4.476,6.256L-1.912,0L0,0L0,9.659Z" style="fill:rgb(1,171,188);fill-rule:nonzero;"/>
    </g>
    <g transform="matrix(1,0,0,1,187.105,39.0579)">
        <path d="M0,0.217C2.143,0.217 2.49,-0.044 2.49,-1.68C2.49,-2.94 2.346,-3.418 1.896,-3.62C1.607,-3.751 1.491,-3.764 0.348,-3.78L-2.578,-3.78L-2.578,0.217L0,0.217ZM-3.664,-4.721L0.376,-4.721C1.665,-4.721 2.041,-4.678 2.476,-4.46C3.215,-4.084 3.576,-3.2 3.576,-1.738C3.576,-0.304 3.2,0.536 2.403,0.912C1.954,1.129 1.868,1.129 0.217,1.158L-2.578,1.158L-2.578,4.938L-3.664,4.938L-3.664,-4.721Z" style="fill:rgb(1,171,188);fill-rule:nonzero;"/>
    </g>
    <g transform="matrix(1,0,0,1,194.041,42.6931)">
        <path d="M0,-7.053C-0.391,-6.604 -0.492,-6.097 -0.492,-4.548C-0.492,-1.681 -0.492,-1.681 -0.448,-1.319C-0.362,-0.392 -0.115,0.057 0.405,0.26C0.797,0.419 1.202,0.463 2.491,0.463C4.258,0.463 4.735,0.376 5.068,-0.001C5.459,-0.449 5.561,-0.956 5.561,-2.506C5.561,-5.373 5.561,-5.373 5.518,-5.736C5.431,-6.661 5.185,-7.111 4.663,-7.314C4.271,-7.473 3.852,-7.517 2.578,-7.517C0.812,-7.517 0.333,-7.429 0,-7.053M5.271,-8.081C6.01,-7.734 6.415,-7.053 6.574,-5.909C6.632,-5.446 6.646,-5.214 6.646,-3.94C6.646,-1.681 6.632,-1.347 6.473,-0.609C6.299,0.231 5.879,0.796 5.185,1.085C4.576,1.331 4.025,1.404 2.665,1.404C1.014,1.404 0.521,1.346 -0.13,1.071C-0.811,0.781 -1.216,0.245 -1.404,-0.609C-1.563,-1.363 -1.578,-1.652 -1.578,-3.925C-1.578,-6.025 -1.491,-6.618 -1.042,-7.327C-0.507,-8.197 0.318,-8.457 2.534,-8.457C4.04,-8.457 4.692,-8.37 5.271,-8.081" style="fill:rgb(1,171,188);fill-rule:nonzero;"/>
    </g>
    <g transform="matrix(1,0,0,1,211.229,34.3366)">
        <path d="M0,9.659L-1.78,9.659L-5.835,3.085C-6.27,2.375 -6.56,1.897 -6.704,1.651L-7.139,0.928L-7.168,0.928C-7.153,1.405 -7.153,1.897 -7.153,2.375L-7.153,9.659L-8.239,9.659L-8.239,0L-6.458,0L-2.939,5.763C-2.635,6.226 -2.07,7.168 -1.708,7.777L-1.101,8.775L-1.071,8.775C-1.086,8.298 -1.086,7.82 -1.086,7.328L-1.086,0L0,0L0,9.659Z" style="fill:rgb(1,171,188);fill-rule:nonzero;"/>
    </g>
    <g transform="matrix(1,0,0,1,214.877,39.7802)">
        <path d="M0,-1.229L4.895,-1.229L4.895,-0.317L0,-0.317L0,3.274L5.112,3.274L5.112,4.215L-1.086,4.215L-1.086,-5.444L5.112,-5.444L5.112,-4.502L0,-4.502L0,-1.229Z" style="fill:rgb(1,171,188);fill-rule:nonzero;"/>
    </g>
    <g transform="matrix(1,0,0,1,230.357,34.3366)">
        <path d="M0,9.659L-1.78,9.659L-5.835,3.085C-6.27,2.375 -6.56,1.897 -6.704,1.651L-7.139,0.928L-7.168,0.928C-7.153,1.405 -7.153,1.897 -7.153,2.375L-7.153,9.659L-8.239,9.659L-8.239,0L-6.458,0L-2.939,5.763C-2.635,6.226 -2.07,7.168 -1.708,7.777L-1.101,8.775L-1.071,8.775C-1.086,8.298 -1.086,7.82 -1.086,7.328L-1.086,0L0,0L0,9.659Z" style="fill:rgb(1,171,188);fill-rule:nonzero;"/>
    </g>
    <g transform="matrix(1,0,0,1,236.279,34.3366)">
        <path d="M0,9.659L-1.086,9.659L-1.086,1.013L-4.229,1.013L-4.229,0L3.128,0L3.128,1.029L0,1.013L0,9.659Z" style="fill:rgb(1,171,188);fill-rule:nonzero;"/>
    </g>
    <g transform="matrix(1,0,0,1,246.748,41.3755)">
        <path d="M0,-4.418C0,-5.156 -0.058,-5.445 -0.231,-5.691C-0.492,-6.082 -0.956,-6.199 -2.216,-6.199C-3.75,-6.199 -4.257,-6.098 -4.547,-5.75C-4.778,-5.488 -4.88,-5.098 -4.88,-4.49C-4.88,-3.592 -4.663,-3.172 -4.142,-2.984C-3.837,-2.883 -3.75,-2.868 -2.187,-2.795C-0.362,-2.709 0.174,-2.607 0.608,-2.23C1.086,-1.825 1.26,-1.246 1.26,-0.117C1.26,1.23 1.014,1.91 0.405,2.287C-0.145,2.62 -0.84,2.722 -2.751,2.722C-4.475,2.722 -5.155,2.519 -5.59,1.853C-5.908,1.375 -5.995,0.94 -6.023,-0.363L-4.937,-0.363C-4.923,0.68 -4.909,0.868 -4.721,1.215C-4.46,1.708 -4.142,1.78 -2.403,1.78C-0.058,1.78 0.174,1.592 0.174,-0.219C0.174,-1.159 -0.029,-1.522 -0.622,-1.637C-0.956,-1.709 -0.956,-1.709 -3.519,-1.84C-5.3,-1.971 -5.966,-2.666 -5.966,-4.389C-5.966,-6.575 -5.228,-7.14 -2.346,-7.14C0.377,-7.14 1.086,-6.604 1.086,-4.576L1.086,-4.418L0,-4.418Z" style="fill:rgb(1,171,188);fill-rule:nonzero;"/>
    </g>
    <g transform="matrix(1,0,0,1,75.5068,21.197)">
        <path d="M0,-16.655L-8.212,-16.655L-8.212,-21.144L13.788,-21.144L13.788,-16.655L5.504,-16.655L5.504,4.489L0,4.489L0,-16.655Z" style="fill:rgb(1,171,188);fill-rule:nonzero;"/>
    </g>
    <g transform="matrix(1,0,0,1,104.309,21.0732)">
        <path d="M0,-16.46L-6.556,-16.46L-6.556,-10.012L0.018,-10.012C1.502,-10.012 2.595,-10.189 3.295,-10.546C4.269,-11.045 4.756,-11.953 4.756,-13.272C4.756,-14.613 4.269,-15.516 3.295,-15.98C2.642,-16.3 1.543,-16.46 0,-16.46M-11.882,-21.073L1.282,-21.073C4.204,-21.073 6.371,-20.522 7.784,-19.417C9.364,-18.182 10.153,-16.157 10.153,-13.343C10.153,-9.27 8.438,-6.858 5.005,-6.11L11.347,4.613L5.304,4.613L-0.254,-5.451L-6.556,-5.451L-6.556,4.613L-11.882,4.613L-11.882,-21.073Z" style="fill:rgb(1,171,188);fill-rule:nonzero;"/>
    </g>
    <g transform="matrix(1,0,0,1,130.987,20.5333)">
        <path d="M0,-15.38L-3.685,-5.535L3.861,-5.535L0,-15.38ZM-2.634,-20.533L3.066,-20.533L13.896,5.153L7.942,5.153L5.605,-0.939L-5.435,-0.939L-7.696,5.153L-13.358,5.153L-2.634,-20.533Z" style="fill:rgb(1,171,188);fill-rule:nonzero;"/>
    </g>
    <g transform="matrix(1,0,0,1,157.49,21.1982)">
        <path d="M0,-16.71C-2.857,-16.71 -4.72,-15.599 -5.589,-13.377C-5.875,-12.648 -6.018,-11.764 -6.018,-10.725L8.822,-10.725L8.822,-6.272L-6.018,-6.272C-6.018,-4.074 -5.566,-2.488 -4.664,-1.514C-3.714,-0.504 -2.152,-0.001 0.021,-0.001L8.822,-0.001L8.822,4.488L-0.228,4.488C-1.95,4.488 -3.345,4.357 -4.414,4.097C-5.756,3.763 -6.997,3.14 -8.137,2.226C-10.738,0.124 -12.039,-3.249 -12.039,-7.892C-12.039,-12.262 -11.147,-15.523 -9.366,-17.672C-7.431,-20.023 -4.337,-21.198 -0.085,-21.198L8.822,-21.198L8.822,-16.71L0,-16.71Z" style="fill:rgb(1,171,188);fill-rule:nonzero;"/>
    </g>
    <g transform="matrix(1,0,0,1,181.146,10.688)">
        <path d="M0,4.31L0,-0.214L12.611,-0.214L12.611,14.998L1.122,14.998C-0.992,14.998 -2.619,14.826 -3.759,14.482C-4.792,14.174 -5.85,13.592 -6.93,12.736C-9.543,10.682 -10.849,7.309 -10.849,2.619C-10.849,-1.705 -9.952,-4.953 -8.158,-7.126C-6.211,-9.501 -3.117,-10.688 1.122,-10.688L12.611,-10.688L12.611,-6.271L1.122,-6.271C-1.229,-6.271 -2.881,-5.356 -3.83,-3.528C-4.543,-2.173 -4.898,-0.208 -4.898,2.369C-4.898,7.701 -2.893,10.367 1.122,10.367L7.143,10.367L7.143,4.31L0,4.31Z" style="fill:rgb(1,171,188);fill-rule:nonzero;"/>
    </g>
    <g transform="matrix(1,0,0,1,209.533,21.1982)">
        <path d="M0,-16.71C-2.856,-16.71 -4.719,-15.599 -5.588,-13.377C-5.874,-12.648 -6.018,-11.764 -6.018,-10.725L8.822,-10.725L8.822,-6.272L-6.018,-6.272C-6.018,-4.074 -5.566,-2.488 -4.663,-1.514C-3.713,-0.504 -2.151,-0.001 0.021,-0.001L8.822,-0.001L8.822,4.488L-0.228,4.488C-1.949,4.488 -3.345,4.357 -4.414,4.097C-5.756,3.763 -6.996,3.14 -8.137,2.226C-10.737,0.124 -12.038,-3.249 -12.038,-7.892C-12.038,-12.262 -11.146,-15.523 -9.365,-17.672C-7.43,-20.023 -4.336,-21.198 -0.085,-21.198L8.822,-21.198L8.822,-16.71L0,-16.71Z" style="fill:rgb(1,171,188);fill-rule:nonzero;"/>
    </g>
    <g transform="matrix(1,0,0,1,235.095,21.0732)">
        <path d="M0,-16.46L-6.555,-16.46L-6.555,-10.012L0.018,-10.012C1.502,-10.012 2.596,-10.189 3.296,-10.546C4.27,-11.045 4.756,-11.953 4.756,-13.272C4.756,-14.613 4.27,-15.516 3.296,-15.98C2.643,-16.3 1.544,-16.46 0,-16.46M-11.881,-21.073L1.283,-21.073C4.204,-21.073 6.371,-20.522 7.785,-19.417C9.364,-18.182 10.154,-16.157 10.154,-13.343C10.154,-9.27 8.438,-6.858 5.006,-6.11L11.348,4.613L5.305,4.613L-0.254,-5.451L-6.555,-5.451L-6.555,4.613L-11.881,4.613L-11.881,-21.073Z" style="fill:rgb(1,171,188);fill-rule:nonzero;"/>
    </g>
    <g transform="matrix(1,0,0,1,-49.251,-117.992)">
        <rect x="297.799" y="141.217" width="2.305" height="2.461" style="fill:rgb(1,171,188);"/>
    </g>
    <g transform="matrix(1,0,0,1,260.48,23.2254)">
        <path d="M0,-9.16L-3.398,-9.16L-3.398,0L0,0C1.419,0 2.376,-0.43 2.871,-1.289C3.235,-1.92 3.418,-3.018 3.418,-4.58C3.418,-6.149 3.235,-7.249 2.871,-7.881C2.376,-8.733 1.419,-9.16 0,-9.16M-6.318,-11.621L0.059,-11.621C2.389,-11.621 4.088,-10.976 5.156,-9.687C6.133,-8.503 6.621,-6.716 6.621,-4.326C6.621,-1.748 5.908,0.101 4.482,1.22C3.838,1.728 3.157,2.07 2.441,2.246C1.875,2.39 1.106,2.461 0.137,2.461L-6.318,2.461L-6.318,-11.621Z" style="fill:rgb(1,171,188);fill-rule:nonzero;"/>
    </g>
    <g transform="matrix(1,0,0,1,275.935,23.2254)">
        <path d="M0,-9.16C-1.566,-9.16 -2.588,-8.551 -3.064,-7.333C-3.221,-6.933 -3.299,-6.448 -3.299,-5.879L4.836,-5.879L4.836,-3.438L-3.299,-3.438C-3.299,-2.233 -3.053,-1.364 -2.557,-0.83C-2.037,-0.276 -1.18,0 0.012,0L4.836,0L4.836,2.461L-0.125,2.461C-1.07,2.461 -1.834,2.39 -2.42,2.246C-3.156,2.064 -3.836,1.722 -4.461,1.22C-5.887,0.068 -6.6,-1.78 -6.6,-4.326C-6.6,-6.722 -6.111,-8.509 -5.135,-9.687C-4.074,-10.976 -2.379,-11.621 -0.047,-11.621L4.836,-11.621L4.836,-9.16L0,-9.16Z" style="fill:rgb(1,171,188);fill-rule:nonzero;"/>
    </g>
    <g transform="matrix(-1,0,0,1,100.686,-115.335)">
        <rect x="67.492" y="133.642" width="14.953" height="14.954" style="fill:rgb(253,184,18);"/>
    </g>
    <g transform="matrix(-1,0,0,1,100.67,-151.773)">
        <rect x="49.251" y="151.861" width="51.419" height="14.954" style="fill:rgb(1,171,188);"/>
    </g>
</svg>
